# xmcd
# 
# Track frame offsets:
#     150
#     14710
#     27905
#     39875
#     52805
#     66337
#     81702
#     96710
#     111437
#     124627
#     137512
#     151702
#     166950
#     179002
#     192762
#     206282
#     221632
#     236652
#     249570
#     264192
#     277280
#     291585
#     306035
# 
# Disc length: 4275
# 
# Revision: 5
# Processed by: cddbd v1.5.2PL0 Copyright (c) Steve Scherf et al.
# Submitted via: fre:ac v1.0.27
# 
DISCID=5a10b117
DTITLE=Lionel Hampton - All Star Groups and Johnny Hodges
DYEAR=1990
DGENRE=Jazz
TTITLE0=On The Sunny Side Of The Street
TTITLE1=I Know That You Know
TTITLE2=Jivin' With Jarvis
TTITLE3=I've Found A New Baby
TTITLE4=Blue Because Of You
TTITLE5=Ring Dem Bells
TTITLE6=Muskrat Ramble
TTITLE7=High Society
TTITLE8=China Stomp(China Town)
TTITLE9=Four Or Five Times
TTITLE10=Twelfth Street Rag
TTITLE11=One Sweet Letter From You
TTITLE12=Dinah
TTITLE13=After You've Gone
TTITLE14=Sweethearts On Parade
TTITLE15=Shoe Shiner's Drag
TTITLE16=The Sheik Of Araby
TTITLE17=House Of Morgan
TTITLE18=Memories Of You
TTITLE19=Singin' The Blues(Till My Daddy Comes Home)
TTITLE20=Doug-Rey-Mi
TTITLE21=Drum Stomp(Crazy Rhythm)
TTITLE22=It Don't Mean A Thing(If It Ain't Got That Swing)
EXTD=YEAR: 1990
EXTT0=
EXTT1=
EXTT2=
EXTT3=
EXTT4=
EXTT5=
EXTT6=
EXTT7=
EXTT8=
EXTT9=
EXTT10=
EXTT11=
EXTT12=
EXTT13=
EXTT14=
EXTT15=
EXTT16=
EXTT17=
EXTT18=
EXTT19=
EXTT20=
EXTT21=
EXTT22=
PLAYORDER=
